HIERARCHY
ROOT Pelvis
{
	OFFSET 0.000000 0.000000 0.000000
	CHANNELS 6 Xposition Yposition Zposition Xrotation Yrotation Zrotation
	JOINT LeftUpLeg_virtual
	{
		OFFSET 0.000000 0.000000 0.000000
		CHANNELS 3 Xrotation Yrotation Zrotation
		JOINT LeftUpLeg
		{
			OFFSET 18.735201 -5.666702 -4.541200
			CHANNELS 3 Xrotation Yrotation Zrotation
			JOINT LeftLeg
			{
				OFFSET -0.021200 -31.938179 0.493100
				CHANNELS 3 Xrotation Yrotation Zrotation
				JOINT LeftFoot
				{
					OFFSET 0.021200 -31.938179 -4.336299
					CHANNELS 3 Xrotation Yrotation Zrotation
					JOINT LeftToeBase
					{
						OFFSET 0.943001 -26.722000 15.023500
						CHANNELS 3 Xrotation Yrotation Zrotation
						End Site
						{
							OFFSET 0 0 0
						}
					}
				}
			}
		}
	}
	JOINT RightUpLeg_virtual
	{
		OFFSET 0.000000 0.000000 0.000000
		CHANNELS 3 Xrotation Yrotation Zrotation
		JOINT RightUpLeg
		{
			OFFSET -18.735201 -5.666702 -4.541200
			CHANNELS 3 Xrotation Yrotation Zrotation
			JOINT RightLeg
			{
				OFFSET 0.018946 -31.938133 0.493100
				CHANNELS 3 Xrotation Yrotation Zrotation
				JOINT RightFoot
				{
					OFFSET -0.018946 -31.938126 -4.336299
					CHANNELS 3 Xrotation Yrotation Zrotation
					JOINT RightToeBase
					{
						OFFSET -0.943001 -26.722004 15.023500
						CHANNELS 3 Xrotation Yrotation Zrotation
						End Site
						{
							OFFSET 0 0 0
						}
					}
				}
			}
		}
	}
	JOINT Hips_virtual
	{
		OFFSET 0.000000 0.000000 0.000000
		CHANNELS 3 Xrotation Yrotation Zrotation
		JOINT Hips
		{
			OFFSET -0.000000 -0.000000 -0.000000
			CHANNELS 3 Xrotation Yrotation Zrotation
			JOINT Spine
			{
				OFFSET 0.000000 10.199997 -0.299500
				CHANNELS 3 Xrotation Yrotation Zrotation
				JOINT Spine1
				{
					OFFSET 0.000000 11.900002 -1.516600
					CHANNELS 3 Xrotation Yrotation Zrotation
					JOINT Spine2
					{
						OFFSET 0.000000 13.600006 -2.842500
						CHANNELS 3 Xrotation Yrotation Zrotation
						JOINT Neck_virtual
						{
							OFFSET 0.000000 0.000000 0.000000
							CHANNELS 3 Xrotation Yrotation Zrotation
							JOINT Neck
							{
								OFFSET 0.000000 9.624100 -2.890100
								CHANNELS 3 Xrotation Yrotation Zrotation
								JOINT Head
								{
									OFFSET 0.000000 14.068802 -1.351900
									CHANNELS 3 Xrotation Yrotation Zrotation
									End Site
									{
										OFFSET 0 0 0
									}
								}
							}
						}
						JOINT LeftShoulder_virtual
						{
							OFFSET 0.000000 0.000000 0.000000
							CHANNELS 3 Xrotation Yrotation Zrotation
							JOINT LeftShoulder
							{
								OFFSET 15.263000 10.923401 -0.547700
								CHANNELS 3 Xrotation Yrotation Zrotation
								JOINT LeftArm
								{
									OFFSET 25.438599 -2.830597 -13.032500
									CHANNELS 3 Xrotation Yrotation Zrotation
									JOINT LeftForeArm
									{
										OFFSET 29.960503 0.000000 0.000000
										CHANNELS 3 Xrotation Yrotation Zrotation
										JOINT LeftHand
										{
											OFFSET 27.849251 0.000000 0.000000
											CHANNELS 3 Xrotation Yrotation Zrotation
											End Site
											{
												OFFSET 0 0 0
											}
										}
									}
								}
							}
						}
						JOINT RightShoulder_virtual
						{
							OFFSET 0.000000 0.000000 0.000000
							CHANNELS 3 Xrotation Yrotation Zrotation
							JOINT RightShoulder
							{
								OFFSET -15.263000 10.923401 -0.547700
								CHANNELS 3 Xrotation Yrotation Zrotation
								JOINT RightArm
								{
									OFFSET -25.438599 -2.830597 -13.032500
									CHANNELS 3 Xrotation Yrotation Zrotation
									JOINT RightForeArm
									{
										OFFSET -29.960503 0.000000 0.000000
										CHANNELS 3 Xrotation Yrotation Zrotation
										JOINT RightHand
										{
											OFFSET -27.849251 0.000000 0.000000
											CHANNELS 3 Xrotation Yrotation Zrotation
											End Site
											{
												OFFSET 0 0 0
											}
										}
									}
								}
							}
						}
					}
				}
			}
		}
	}
}
MOTION
Frames: 12
Frame Time: 0.03333333
1.441032 89.235283 1.359722 0.000000 0.000000 0.000000 2.622945 -24.429316 -0.619251 -38.440735 4.241720 14.766283 43.269638 -0.489845 0.583003 -6.146306 -0.914890 -5.027272 0.000000 0.000000 0.000000 10.708154 -8.271059 2.659681 -16.208384 -8.548480 -12.956018 31.881803 -4.268493 1.618592 -17.334679 -8.923412 10.576336 0.000000 0.000000 0.000000 1.403037 -6.179092 0.662763 7.007537 12.726297 -5.760482 15.497926 3.896169 1.105416 6.757238 2.087709 1.269002 0.000000 0.000000 0.000000 1.054989 4.458318 0.008314 0.282510 2.021605 0.020186 0.000000 0.000000 0.000000 3.914415 -0.427788 -0.984358 3.224952 -19.751840 0.465262 -25.121926 -14.481767 -60.270224 -3.522636 -52.139779 -17.163190 0.000000 0.000000 0.000000 3.842926 2.643600 -0.861445 7.936841 19.744620 -6.911722 -31.392895 26.128725 58.256773 -18.652226 64.159498 25.444673 0.000000 0.000000 0.000000 
1.524303 89.143394 1.574671 0.000000 0.000000 0.000000 2.643972 -24.296793 -0.710165 -38.363359 4.312128 14.665827 43.289152 -0.565893 0.650329 -6.154271 -1.026057 -4.974531 0.000000 0.000000 0.000000 10.946374 -7.930833 2.607131 -15.779407 -8.491134 -12.935876 31.589755 -4.432421 1.708823 -17.569193 -9.144079 10.617707 0.000000 0.000000 0.000000 1.534443 -5.925660 0.668873 7.041666 12.546295 -5.624258 15.489228 3.978553 0.916964 6.769158 2.154739 1.149541 0.000000 0.000000 0.000000 1.127830 4.504403 -0.041853 0.288786 2.019288 0.028387 0.000000 0.000000 0.000000 3.828515 -0.401721 -1.037712 3.169725 -19.949572 0.545876 -25.078957 -14.660584 -59.992700 -3.469991 -52.366398 -16.891876 0.000000 0.000000 0.000000 3.912539 2.695845 -0.919566 7.969122 19.701635 -6.925525 -31.517761 26.457259 58.428601 -19.053021 64.514757 25.975462 0.000000 0.000000 0.000000 
1.601516 89.058548 1.783319 0.000000 0.000000 0.000000 2.664247 -24.173593 -0.794561 -38.288838 4.377370 14.571442 43.307347 -0.631797 0.709457 -6.162545 -1.122605 -4.927961 0.000000 0.000000 0.000000 11.145352 -7.600879 2.547177 -15.412875 -8.428249 -12.927070 31.313590 -4.580044 1.791366 -17.793481 -9.343639 10.657207 0.000000 0.000000 0.000000 1.675687 -5.673873 0.678433 7.087090 12.336551 -5.473161 15.477374 4.052139 0.730392 6.782649 2.216276 1.029530 0.000000 0.000000 0.000000 1.195466 4.544101 -0.086192 0.290552 2.012862 0.040274 0.000000 0.000000 0.000000 3.742927 -0.379384 -1.090153 3.113805 -20.158706 0.631716 -25.023223 -14.834291 -59.711836 -3.407759 -52.575583 -16.614065 0.000000 0.000000 0.000000 3.985071 2.749197 -0.982104 8.008984 19.670414 -6.962925 -31.628171 26.800612 58.602518 -19.473154 64.874571 26.530729 0.000000 0.000000 0.000000 
1.671712 88.981064 1.992798 0.000000 0.000000 0.000000 2.699207 -24.060721 -0.865387 -38.202839 4.438854 14.488744 43.345859 -0.690745 0.763073 -6.156669 -1.209826 -4.885903 0.000000 0.000000 0.000000 11.334948 -7.287685 2.489801 -15.065543 -8.368532 -12.919260 31.069188 -4.720001 1.867440 -17.995919 -9.530006 10.691319 0.000000 0.000000 0.000000 1.826543 -5.421405 0.690095 7.142009 12.109586 -5.317732 15.458436 4.114909 0.546392 6.795645 2.271216 0.909441 0.000000 0.000000 0.000000 1.258685 4.572089 -0.135364 0.289652 2.000068 0.049861 0.000000 0.000000 0.000000 3.656586 -0.362620 -1.140067 3.059467 -20.381144 0.729801 -24.947385 -15.014458 -59.419367 -3.325891 -52.772104 -16.321210 0.000000 0.000000 0.000000 4.055907 2.801643 -1.046952 8.049491 19.644389 -7.013105 -31.723521 27.147365 58.792178 -19.910148 65.234399 27.116111 0.000000 0.000000 0.000000 
1.733001 88.904785 2.202778 0.000000 0.000000 0.000000 2.733829 -23.964289 -0.929105 -38.121222 4.493648 14.412964 43.381345 -0.739785 0.811074 -6.153518 -1.283817 -4.846186 0.000000 0.000000 0.000000 11.519012 -6.984923 2.436492 -14.731482 -8.311241 -12.909920 30.841931 -4.851809 1.937298 -18.187175 -9.703758 10.720583 0.000000 0.000000 0.000000 1.982444 -5.179889 0.704035 7.197624 11.863012 -5.165076 15.428047 4.165265 0.365398 6.805517 2.318814 0.789627 0.000000 0.000000 0.000000 1.314373 4.596035 -0.182456 0.285314 1.986158 0.060822 0.000000 0.000000 0.000000 3.569344 -0.351786 -1.187369 3.007150 -20.614483 0.839942 -24.865252 -15.190959 -59.113573 -3.234485 -52.949057 -16.018168 0.000000 0.000000 0.000000 4.125233 2.852696 -1.113745 8.090666 19.623658 -7.077231 -31.805920 27.487318 59.000629 -20.363997 65.588094 27.734393 0.000000 0.000000 0.000000 
1.779377 88.834343 2.399120 0.000000 0.000000 0.000000 2.762245 -23.884290 -0.986857 -38.050776 4.540656 14.344024 43.415445 -0.778325 0.851810 -6.152973 -1.343136 -4.811090 0.000000 0.000000 0.000000 11.696624 -6.697476 2.383443 -14.413028 -8.256904 -12.904362 30.642271 -4.975013 1.999712 -18.361367 -9.863148 10.743153 0.000000 0.000000 0.000000 2.126843 -4.953777 0.715347 7.195407 11.590297 -5.034508 15.387723 4.203748 0.182340 6.813026 2.359310 0.667267 0.000000 0.000000 0.000000 1.363496 4.620255 -0.221068 0.278098 1.973315 0.076381 0.000000 0.000000 0.000000 3.479646 -0.346299 -1.233075 2.953965 -20.860441 0.954968 -24.786103 -15.344283 -58.800422 -3.142551 -53.095500 -15.714595 0.000000 0.000000 0.000000 4.194083 2.903288 -1.181502 8.134856 19.611167 -7.152218 -31.883719 27.852839 59.230697 -20.847334 65.961193 28.393668 0.000000 0.000000 0.000000 
1.818395 88.767609 2.594166 0.000000 0.000000 0.000000 2.799530 -23.827832 -1.034278 -37.974766 4.580527 14.283247 43.454712 -0.808832 0.888731 -6.149420 -1.392348 -4.776954 0.000000 0.000000 0.000000 11.869207 -6.428753 2.333071 -14.106623 -8.207096 -12.899689 30.469891 -5.092520 2.059206 -18.517824 -10.013360 10.764417 0.000000 0.000000 0.000000 2.258843 -4.739228 0.723172 7.141096 11.311489 -4.931416 15.344952 4.232026 -0.006619 6.821701 2.393951 0.540667 0.000000 0.000000 0.000000 1.407447 4.640124 -0.256593 0.268694 1.958207 0.093897 0.000000 0.000000 0.000000 3.391674 -0.344706 -1.277452 2.903444 -21.114717 1.075571 -24.687193 -15.488287 -58.476145 -3.032754 -53.218321 -15.400859 0.000000 0.000000 0.000000 4.260400 2.954520 -1.250278 8.180679 19.610679 -7.238461 -31.961498 28.224906 59.479951 -21.359000 66.331608 29.090479 0.000000 0.000000 0.000000 
1.851525 88.702072 2.785862 0.000000 0.000000 0.000000 2.846184 -23.799086 -1.071696 -37.890567 4.612253 14.228931 43.490451 -0.828850 0.923590 -6.148337 -1.429599 -4.739182 0.000000 0.000000 0.000000 12.034273 -6.196987 2.280207 -13.815187 -8.165412 -12.903727 30.317325 -5.204065 2.113918 -18.660302 -10.153739 10.781475 0.000000 0.000000 0.000000 2.399292 -4.532100 0.734127 7.106484 11.033584 -4.823728 15.302052 4.248371 -0.193201 6.833417 2.421724 0.414382 0.000000 0.000000 0.000000 1.447213 4.653525 -0.289662 0.257558 1.940657 0.112972 0.000000 0.000000 0.000000 3.307767 -0.348483 -1.320552 2.857458 -21.375948 1.202177 -24.563322 -15.642914 -58.139219 -2.900061 -53.333457 -15.073311 0.000000 0.000000 0.000000 4.323280 3.004302 -1.318510 8.225483 19.617937 -7.331086 -32.026959 28.581826 59.740188 -21.881711 66.678684 29.809148 0.000000 0.000000 0.000000 
1.878585 88.641350 2.970957 0.000000 0.000000 0.000000 2.891302 -23.789346 -1.102902 -37.811483 4.636711 14.180455 43.519326 -0.837554 0.953910 -6.152797 -1.452649 -4.701065 0.000000 0.000000 0.000000 12.188608 -6.029367 2.225806 -13.546739 -8.138824 -12.920529 30.182230 -5.311966 2.159020 -18.789736 -10.284193 10.785161 0.000000 0.000000 0.000000 2.545062 -4.328729 0.747742 7.091623 10.773198 -4.711831 15.251971 4.256329 -0.376608 6.843654 2.444459 0.288607 0.000000 0.000000 0.000000 1.476861 4.660775 -0.320810 0.243673 1.920024 0.132949 0.000000 0.000000 0.000000 3.220950 -0.356829 -1.363180 2.811593 -21.645520 1.329400 -24.430420 -15.784982 -57.800162 -2.760360 -53.431033 -14.746578 0.000000 0.000000 0.000000 4.379886 3.053641 -1.386229 8.267772 19.636008 -7.431706 -32.105769 28.927555 60.019796 -22.428096 67.011396 30.560206 0.000000 0.000000 0.000000 
1.895824 88.582893 3.149494 0.000000 0.000000 0.000000 2.935562 -23.799198 -1.128681 -37.737434 4.654419 14.137239 43.541944 -0.835368 0.980427 -6.162157 -1.462350 -4.661739 0.000000 0.000000 0.000000 12.345547 -5.861494 2.176990 -13.279223 -8.113610 -12.932806 30.055083 -5.412789 2.198940 -18.912889 -10.404419 10.784667 0.000000 0.000000 0.000000 2.692554 -4.115301 0.762136 7.087385 10.553593 -4.602941 15.196278 4.254097 -0.556289 6.852712 2.461165 0.164101 0.000000 0.000000 0.000000 1.498323 4.662705 -0.349450 0.227163 1.897412 0.154244 0.000000 0.000000 0.000000 3.133595 -0.370579 -1.405511 2.766273 -21.923580 1.457101 -24.286174 -15.913381 -57.452635 -2.610880 -53.507774 -14.416315 0.000000 0.000000 0.000000 4.432672 3.100543 -1.452909 8.308318 19.652978 -7.535771 -32.174334 29.252239 60.312271 -22.991532 67.326035 31.339083 0.000000 0.000000 0.000000 
1.907606 88.526756 3.323780 0.000000 0.000000 0.000000 2.978034 -23.826903 -1.150035 -37.668097 4.665791 14.098013 43.554668 -0.822041 1.002934 -6.177914 -1.458335 -4.621224 0.000000 0.000000 0.000000 12.497872 -5.696281 2.129152 -13.023161 -8.088540 -12.946159 29.931846 -5.505727 2.233146 -19.033963 -10.513603 10.779591 0.000000 0.000000 0.000000 2.842171 -3.899609 0.777242 7.101098 10.364043 -4.496541 15.140349 4.238152 -0.731654 6.863365 2.470288 0.041230 0.000000 0.000000 0.000000 1.514569 4.657835 -0.376269 0.208499 1.872596 0.176245 0.000000 0.000000 0.000000 3.047764 -0.388271 -1.447680 2.721014 -22.199527 1.582376 -24.125787 -16.023279 -57.090590 -2.448981 -53.553171 -14.079312 0.000000 0.000000 0.000000 4.480903 3.143827 -1.523396 8.348930 19.665779 -7.665468 -32.262146 29.552265 60.551929 -23.548730 67.610472 32.080763 0.000000 0.000000 0.000000 
1.917656 88.472565 3.494652 0.000000 0.000000 0.000000 3.020707 -23.871293 -1.165845 -37.601014 4.671131 14.063532 43.564920 -0.801875 1.022255 -6.195120 -1.445647 -4.581315 0.000000 0.000000 0.000000 12.641286 -5.546997 2.085379 -12.783061 -8.066868 -12.958228 29.825298 -5.592356 2.264365 -19.142305 -10.614006 10.773303 0.000000 0.000000 0.000000 2.989719 -3.688479 0.792494 7.117902 10.192991 -4.393524 15.081152 4.211802 -0.905232 6.873680 2.473314 -0.081503 0.000000 0.000000 0.000000 1.524040 4.652910 -0.400337 0.187430 1.849105 0.199677 0.000000 0.000000 0.000000 2.966926 -0.408677 -1.490378 2.679333 -22.474205 1.703971 -23.937996 -16.126744 -56.720404 -2.266494 -53.575232 -13.734225 0.000000 0.000000 0.000000 4.523046 3.187878 -1.591035 8.385816 19.693151 -7.792390 -32.329280 29.832029 60.782953 -24.086626 67.859050 32.808038 0.000000 0.000000 0.000000 
